<?xml version="1.0" encoding="utf-8"?>
<!-- Generator: Adobe Illustrator 27.5.0, SVG Export Plug-In . SVG Version: 6.00 Build 0)  -->
<svg version="1.1" id="Layer_1" xmlns="http://www.w3.org/2000/svg" xmlns:xlink="http://www.w3.org/1999/xlink" x="0px" y="0px"
	 viewBox="0 0 2000 2000" style="enable-background:new 0 0 2000 2000;" xml:space="preserve">
<path style="fill:#191919;" d="M445.741,1335.477c0,0,7.447,3.724,12.412-4.965s6.206-22.341,27.306-33.512
	c14.894,11.171,13.653,13.653,14.894,22.341c1.241,8.688,1.241,16.135,0,19.859c-1.241,3.724-6.206,13.653-4.965,18.618
	s5.585,16.756,3.103,27.927c-2.482,11.171-6.206,12.412-7.447,18.618c-1.241,6.206-2.482,38.477-1.241,45.924
	c1.241,7.447,8.688,17.377,13.653,29.789c4.965,12.412,8.688,14.894,9.93,22.341s1.241,17.377,4.965,18.618
	c3.724,1.241,8.688,2.482,13.653,7.447c4.965,4.965,33.512,32.271,42.2,34.753c8.688,2.482,27.306,16.135,52.13,63.301
	c24.824,47.165,42.2,99.295,43.442,130.325c1.241,31.03-2.482,31.03-4.965,43.442s-6.206,32.271,4.965,39.718
	c11.171,7.447,29.789,18.618,55.854,17.377c26.065-1.241,115.431-6.206,183.696,4.965c68.265,11.171,89.366,12.412,90.607,21.1
	c1.241,8.688-14.894,6.206-14.894,6.206s-88.124-12.412-135.29-9.929c-47.165,2.482-105.501,4.965-136.531,6.206
	s-44.683,0-54.612-3.724c-9.93-3.724-8.688-8.688-26.065-3.724s-18.618,13.653-32.271,14.894s-40.83,4.607-76.954,2.482
	c-21.1-1.241-29.789,2.482-29.789,2.482s-11.171,2.482-16.135,0c-7.447,0-24.824,0-23.583-7.447
	c-3.724-2.482-2.482-4.965-2.482-8.688c0-3.724,3.724-8.688,3.724-8.688l3.724-2.482l-23.583-2.482h-19.859l-9.93-2.482
	c0,0-11.171,0-13.653-3.724c-2.482-3.724-7.447-13.653-3.724-16.135c3.724-2.482,7.447-8.688,13.653-6.206
	c2.482-3.724,3.724-7.447,14.894-3.724c11.171,3.724,18.618,6.206,45.924,8.688c27.306,2.482,38.477,2.482,40.959,0
	c2.482-2.482-6.206-14.894-6.206-14.894s-9.93-11.171-11.171-16.135c-1.241-4.965-4.965-17.377-6.206-18.618
	s-1.241-1.241-1.241-1.241l-4.965-7.447c0,0,0-13.653,1.241-18.618s-1.241-19.859-1.241-19.859v-8.688l2.482-12.412l-2.482-12.412
	c0,0-3.724-8.688-6.206-11.171c-2.482-2.482-2.482-2.482-7.447-6.206c-4.965-3.724-7.447-8.688-7.447-8.688l-3.724-4.965
	l-3.724-1.241c0,0-28.547,74.471-31.03,78.195c-2.482,3.724-4.965,11.171-7.447,14.894c-2.482,3.724,0,7.447-1.241,9.929
	c-1.241,2.482-3.724,4.965-3.724,4.965s-2.482-1.241-3.724,3.724c-1.241,4.965-6.206,11.171-6.206,11.171s1.241,6.206,0,8.688
	c-1.241,2.482-4.965,11.171-4.965,11.171s-1.241,8.688-2.482,12.412c-1.241,3.724-1.241,11.171-3.724,12.412
	c-2.482,1.241-3.724,6.206-3.724,6.206s-1.241,2.482-3.724,6.206c-2.482,3.724-8.688,8.688-8.688,9.93s-6.206,3.724-12.412,3.724
	c-6.206,0-9.93,1.241-12.412-1.241c-3.724,0-17.377,0-17.377-4.965s0-21.1,6.206-22.341c6.206-1.241,9.93,1.241,14.894,0
	c4.965-1.241,4.965-3.724,8.688-8.688c3.724-4.965,9.93-29.789,14.894-47.165c4.965-17.377,18.618-83.16,18.618-89.366
	c0-6.206-1.241-44.683-6.206-57.095c-4.965-12.412-14.894-40.959-16.135-52.13c-1.241-11.171,2.482-45.924,6.206-52.13
	c0,0-7.447-3.724-9.93-7.447c-2.482-3.724-3.724-8.688-7.447-13.653s-13.653-13.653-17.377-18.618
	c-3.724-4.965-22.341-32.271-26.065-48.406c-3.724-16.135-11.171-29.788-11.171-29.788l-2.482-2.482c0,0-1.241-1.241-2.482-6.206
	c-1.241-4.965-4.965-8.688-7.447-13.653c-2.482-4.965-8.688-12.412-8.688-12.412v-3.724c0,0-8.688-16.135-11.171-17.377
	c-2.482-1.241-3.724-1.241-4.965,1.241c-1.241,2.482-3.724,4.965-3.724,4.965v-4.965v-6.206c0,0,2.482-1.241-2.482-4.965
	c-4.965-3.724-7.447-6.206-9.93-4.965s-6.206-3.724-6.206-3.724l-3.724-2.482h-6.206c0,0-8.688-2.482-7.447-8.688
	c-1.241,1.241-3.724,3.724-3.724,3.724l2.482-11.171l13.653-8.688c0,0,2.482-3.724,6.206-4.965s2.482,1.241,9.93,3.724
	c7.447,2.482,16.135,7.447,19.859,12.412s24.824,24.824,38.477,42.2c13.653,17.377,49.648,64.542,54.612,73.23
	s6.206,11.171,9.93,13.653c3.724,2.482,2.482,3.724,8.688,1.241c6.206-2.482,7.447-4.965,8.688-8.688
	c1.241-3.724,1.241-1.241,0-11.171c-1.241-9.93-1.241-13.653-2.482-17.377c-1.241-3.724-2.482-7.447-2.482-7.447
	s-16.135-4.965-14.894-17.377s-8.688-9.93-8.688-14.894s-1.241-14.894,7.447-18.618c0-3.724-1.241-7.447,4.965-9.93
	c6.206-2.482,16.135-4.965,16.135-9.929c0-4.965-8.688-29.789-8.688-29.789s-2.482-9.93,2.482-6.206
	c4.965,3.724,24.824,13.653,28.547,24.824C419.055,1336.097,430.226,1333.615,445.741,1335.477z"/>
</svg>