<?xml version="1.0" encoding="utf-8"?>
<!-- Generator: Adobe Illustrator 27.5.0, SVG Export Plug-In . SVG Version: 6.00 Build 0)  -->
<svg version="1.1" id="Layer_1" xmlns="http://www.w3.org/2000/svg" xmlns:xlink="http://www.w3.org/1999/xlink" x="0px" y="0px"
	 viewBox="0 0 2000 2000" style="enable-background:new 0 0 2000 2000;" xml:space="preserve">
	 <path style="fill:#191919;" d="M1712.167,1463.372c0,0-16.413-2.525-20.201,0c-3.788,2.525-25.251,1.263-32.827-1.263
	c-7.575-2.525-18.938-8.838-23.989-7.575c-5.05,1.262-7.575-7.575-7.575-7.575s-23.989-54.29-27.776-58.078
	c-3.788-3.788-15.151-20.201-25.251,0c-10.1,20.201-8.838,58.078-8.838,59.34s-2.525,29.039-2.525,29.039v16.413
	c0,0-3.788,20.201-10.1,27.776c-6.313,7.575-14.519,27.145-13.257,39.771s3.788,29.039,3.788,29.039s-23.989-12.626-34.089-22.726
	s-23.989-15.151-26.514-13.888c-2.525,1.263-37.877-13.888-47.977-18.938c-10.1-5.05-36.614-22.726-55.553-26.514
	s-95.954-7.575-107.318-7.575s-32.827,2.525-32.827,2.525l-3.788,3.788l2.525,3.788c0,0-6.313-1.263-11.363,0
	c-5.05,1.263-11.363,2.525-11.363,2.525l-5.05,1.262l-5.05,2.525v1.263l-3.788,1.263v2.525l-21.464,1.263l8.838,3.788
	c0,0-7.575,2.525-11.363,3.788c-3.788,1.263,6.313,3.788,6.313,3.788l-2.525,5.05l-5.05,2.525c0,0-5.05,0-11.363,1.263
	c-6.313,1.263-26.514,16.413-26.514,16.413l-7.575,3.788l-2.525,6.313l-11.363,1.263v5.05l-3.788,2.525l-2.525,5.05l-7.575,6.313
	l-7.575,2.525v3.788l8.838,2.525c0,0-6.313,6.313-12.626,10.1c-6.313,3.788-12.625,5.05-12.625,5.05l-5.05,3.788h8.838l-8.838,2.525
	h6.313l-2.525,7.575l-8.838,3.788h7.575l-3.788,3.788l6.313,1.263l-22.726,16.413l5.05,6.313l-5.05,6.313h8.838
	c0,0-13.888,22.726-12.626,29.039c1.263,6.313-3.788,18.938-3.788,18.938l-5.05,7.575l8.838-7.575l5.05-8.838v12.626l-6.313,10.1
	l-3.788,3.788l-3.788,5.05l-3.788,18.938l8.838-10.1l-1.263,11.363c0,0-6.313,8.838-7.575,13.888
	c-0.521,2.084-1.042,4.384-1.474,6.366c-0.615,2.82-1.051,4.997-1.051,4.997v5.05l8.838-10.1c0,0,0,7.575-3.788,15.151
	s-6.313,16.413-5.05,25.251c1.263,8.838,3.788,20.201,3.788,20.201l1.263-8.838l3.788,12.625l1.262-3.788l8.838,11.363l1.263,13.888
	c0,0,13.888,7.575,18.938,12.626c5.05,5.05,6.313,5.05,17.676,6.313s56.815,8.838,89.642,7.575s118.681,2.525,118.681,2.525
	s227.261,10.1,270.188,6.313c42.927-3.788,94.692-2.525,94.692-2.525s22.726-1.262,25.251-7.575
	c2.525-6.313-7.575-12.626-18.938-12.626s-11.363,0-11.363,0l22.726-2.525l16.413,1.263c0,0,15.151-1.263,23.989-10.1
	s8.838-12.626,8.838-16.413c0-3.788-3.788-17.676-3.788-17.676l-6.313-11.363l-2.525-5.05l-1.262-12.626
	c0,0,17.676-42.927,18.938-56.815c1.263-13.888,3.788-29.039,3.788-29.039l12.626-22.726l-3.788-6.313l3.788-11.363v-3.788v-3.788
	v-2.525l3.788-1.263v-2.525v-2.525v-2.525c0,0,1.263,5.05,0-1.262c-1.263-6.313-1.263-6.313-1.263-6.313l1.263-1.263v-1.263
	l2.525-3.788v-2.525l3.788-6.313v-3.788c0,0-1.263,1.263,0-3.788c1.263-5.05-10.1,5.05,0-5.05s7.575-6.313,10.1-10.1
	c2.525-3.788,13.888-39.139,16.413-46.715s0-23.989,0-23.989l-2.525-17.676l3.788-15.151c0,0,17.676-26.514,15.151-58.078
	c-2.525-31.564-5.05-53.028-17.676-53.028s-25.251,6.313-34.089,18.938S1717.849,1461.478,1712.167,1463.372z"/>
</svg>