<?xml version="1.0" encoding="utf-8"?>
<!-- Generator: Adobe Illustrator 27.5.0, SVG Export Plug-In . SVG Version: 6.00 Build 0)  -->
<svg version="1.1" id="Layer_1" xmlns="http://www.w3.org/2000/svg" xmlns:xlink="http://www.w3.org/1999/xlink" x="0px" y="0px"
	 viewBox="0 0 2000 2000" style="enable-background:new 0 0 2000 2000;" xml:space="preserve">
	 <path style="fill:#191919;" d="M1776.323,186.104c0,0,36.963,20.089,42.588,35.356s5.625,17.678,5.625,28.124
	c0,10.446,4.018,17.678,5.625,19.285s9.643,12.053,8.036,18.482c-1.607,6.428-4.018,8.839-4.018,8.839s-11.25,16.071-20.892,20.089
	c-9.642,4.018-19.285,2.411-28.928,0c-9.643-2.411-28.928,0-40.981,2.411c-12.053,2.411-32.945,10.446-33.749,15.267
	s0,44.195,0,44.195s4.018,40.981,20.089,58.659c16.071,17.678,39.374,45.802,49.82,52.231c10.446,6.428,21.696,20.892,21.696,20.892
	s15.267,16.874,21.696,19.285s14.464,13.66,14.464,13.66s12.053,4.821,16.071,4.821s18.482,4.018,19.285,12.053
	c0.803,8.035,0,16.874-7.232,19.285s-21.696,4.821-24.106,3.214c-2.411-1.607-4.018-3.214-4.018-3.214l-4.018-2.411l-6.428,0.804
	c0,0-5.625,2.411-11.25-1.607c-5.625-4.018-10.446-6.428-10.446-6.428l-5.625-2.411c0,0-4.018-6.428-12.053-11.25
	c-8.036-4.821-16.875-9.643-16.875-9.643s-56.248-40.981-78.748-53.034c-22.499-12.053-41.784-34.552-65.087-36.963
	s-29.731-2.411-36.16-6.428c-6.428-4.018-14.464-12.857-14.464-12.857v-3.214c0,0-22.499,12.857-37.767,32.142
	c-15.267,19.285-28.124,44.999-32.142,55.445c-4.018,10.446-12.857,28.124-12.857,28.124s-1.607,6.428-1.607,9.643
	c0,3.214-0.804,8.839,3.214,14.464c4.018,5.625,10.446,4.018,10.446,4.018s10.446,2.411,13.66,8.839
	c3.214,6.428,1.607,17.678-1.607,19.285c-3.214,1.607-8.839,0-8.839,0l-5.625,2.411l-6.428-1.607c0,0-12.053,4.018-24.106,1.607
	c-12.053-2.411-16.874-8.035-19.285-15.267c-2.411-7.232-4.821-23.303-4.821-23.303v-16.071c0,0-3.214-8.839,0-16.071
	c3.214-7.232,11.25-25.713,12.857-42.588c1.607-16.874,5.625-45.802,5.625-45.802l0.804-18.482c0,0-32.945,9.643-57.052,12.053
	c-24.106,2.411-62.677-0.804-62.677-0.804l-58.659,4.821l-5.625,4.821l-53.838,63.48c0,0-6.428,13.66,3.214,20.892
	s28.928,26.517,33.749,28.124c4.821,1.607,6.428,4.018,14.464,1.607s17.678,3.214,17.678,3.214l11.25,9.643
	c0,0,2.411,4.018-0.804,10.446c-3.214,6.428-12.857,8.839-12.857,8.839h-20.892h-20.892l-9.642-1.607l-3.214-4.018l-12.857-6.428
	c0,0-34.553-28.928-48.213-44.999s-24.91-29.731-23.303-36.963c1.607-7.232,10.446-23.303,10.446-23.303s3.214-9.643,5.625-16.071
	c2.411-6.428,4.018-12.053,4.018-12.053s-102.05,21.696-122.943,15.267c-20.892-6.428-32.945,21.696-32.945,21.696
	s-27.321,64.284-28.928,69.909s-8.035,20.089-13.66,20.892c-5.625,0.804-15.267,0-18.482-3.214
	c-3.214-3.214-4.018-7.232-4.018-7.232l1.607-6.428c0,0-3.214-7.232-3.214-9.643c0-2.411,0.804-8.036,2.411-9.643
	c1.607-1.607,5.625-1.607,6.428-8.035c0.804-6.428,7.232-35.356,10.446-47.409c3.214-12.053,22.499-57.052,22.499-57.052
	s-12.857,13.66-19.285,16.874c-6.428,3.214-4.821,0-4.821,0s-6.428,3.214-17.678,4.821c-11.25,1.607-8.839-1.607-8.839-1.607
	s5.625,2.411-11.25,1.607c-16.874-0.804-23.303-2.411-23.303-2.411l1.607-1.607l-8.839-0.804c0,0-9.643-4.821-16.874-8.035
	c-7.232-3.214-1.607-3.214-1.607-3.214s-16.071-12.053-20.089-14.464c-4.018-2.411-10.446-11.25-10.446-11.25l4.018,1.607
	l-2.411-4.018c0,0-17.678-16.874-19.285-22.499c-1.607-5.625-4.018-11.25-2.411-12.857s18.482-2.411,27.321,3.214
	c8.839,5.625,26.517,25.714,49.016,31.338c22.499,5.625,51.427,0.804,79.551-25.713c28.124-26.517,69.909-75.533,73.926-78.748
	c4.018-3.214,6.428-8.035,6.428-8.035s-5.625,4.018-7.232,4.821c-1.607,0.804,4.018-4.821,10.446-12.053
	c6.428-7.232,6.428-5.625,6.428-7.232c0-1.607,25.714-34.552,32.945-40.177c7.232-5.625,34.552-16.874,34.552-16.874
	s90.801-18.482,98.836-17.678c8.035,0.804,56.248,0.804,96.426,8.035s111.693,12.053,129.371,9.643s40.177-4.018,49.016-4.821
	c8.839-0.804,21.696,0.804,21.696,0.804l13.66,0.804c0,0,13.66,3.214,24.106,2.411c10.446-0.804,18.482,1.607,22.499-1.607
	c4.018-3.214,12.857-8.035,12.857-8.035l15.267-1.607c0,0,32.142-2.411,47.409-11.25c15.267-8.839,36.963-21.696,36.963-21.696
	s-0.804-12.053,2.411-15.267s12.857-12.053,16.071-12.857c3.214-0.804,4.821-1.607,8.839,1.607s7.232,4.821,8.839,8.839
	c1.607,4.018,4.018,10.446,4.018,10.446s7.232-7.232,11.25-10.446s8.839-8.035,12.053-4.821c3.214,3.214,4.821,2.411,3.214,8.035
	c-1.607,5.625-2.411,10.446-4.821,15.267C1776.323,184.497,1776.323,186.104,1776.323,186.104z"/>
</svg>