<?xml version="1.0" encoding="utf-8"?>
<!-- Generator: Adobe Illustrator 27.5.0, SVG Export Plug-In . SVG Version: 6.00 Build 0)  -->
<svg version="1.1" id="Layer_1" xmlns="http://www.w3.org/2000/svg" xmlns:xlink="http://www.w3.org/1999/xlink" x="0px" y="0px"
	 viewBox="0 0 2000 2000" style="enable-background:new 0 0 2000 2000;" xml:space="preserve">
	<path style="fill:#191919;" d="M976.47,1127.197c0,0-39.733,7.69-65.367-28.198s-33.324-83.311-49.987-94.846
	c-16.662-11.535-23.711-21.148-41.655-16.021c-17.944,5.127-42.296,15.38-44.86,19.226c-2.563,3.845,6.409,7.69,6.409,7.69
	s8.972,0,21.789-3.845c12.817-3.845,29.479-2.563,34.606,5.127c5.127,7.69,14.099,15.38,17.944,25.634
	c3.845,10.254-1.282,5.127-1.282,5.127s-1.282,12.817,6.409,20.507c7.69,7.69,16.662,17.944,15.38,21.789
	s10.254,23.071,10.254,23.071l-1.282,6.409l6.409,6.408c0,0,3.845,5.127,10.254,8.972s-1.282,3.845-1.282,3.845
	s11.535,7.69,15.38,8.972c3.845,1.282,11.535,7.69,11.535,7.69s26.916,12.817,48.705,14.099c2.563,2.563,0,11.535,0,11.535
	s-16.662,0-19.226,6.409s-5.127,24.352,3.845,25.634c8.972,1.282,12.817,0,12.817,0s8.972-1.282,15.38,0
	c6.409,1.282,12.817,0,12.817,0l2.563-7.69c0,0,2.563-5.127,11.535-2.563c8.972,2.563,12.817,2.563,16.662,0
	c3.845-2.563,6.408-11.535,6.408-11.535s26.916-5.127,32.043-2.563c5.127,2.563,14.099,5.127,14.099,5.127s3.845,5.127,7.69,5.127
	s5.127,6.409,5.127,6.409s-2.563,5.127,0,6.409c2.563,1.282,23.071,1.282,32.043,1.282s14.099,1.282,15.38-2.563
	c1.282-3.845,0-6.409,0-6.409l10.254,1.282c0,0,14.099,1.282,16.662-3.845c2.563-5.127,3.845-6.409,0-12.817
	c-3.845-6.409-5.127-10.254-5.127-10.254l-10.254-3.845l-8.972-1.282c0,0,17.944-6.409,29.479-16.662
	c11.535-10.254,39.733-30.761,34.606-65.367c-5.127-34.606-7.69-48.705-11.535-58.958c-3.845-10.254-8.972-11.535-11.535-24.352
	c-2.563-12.817-10.254-33.324-16.662-48.705c-6.409-15.38-23.071-51.268-43.578-74.339c-20.507-23.071-32.043-30.761-32.043-30.761
	s0,3.845-2.563-3.845c-2.563-7.69-6.408-17.944-7.69-19.226c-1.282-1.282-12.817-19.226-12.817-19.226s2.563-12.817,2.563-21.789
	c0-8.972,5.127-28.197,5.127-28.197l3.845-10.254l1.282-11.535c0,0,6.409-17.944,8.972-24.352
	c2.563-6.409,5.127-17.944,3.845-20.507c-1.282-2.563,2.563-12.817-7.69-15.38s-19.226,1.282-28.198,11.535
	s-28.198,29.479-29.479,30.761c-1.282,1.282-46.141-3.845-57.677,2.563c-7.69-10.254-44.86-46.141-44.86-46.141
	s-25.634-8.972-25.634,10.254s8.972,46.141,10.254,51.268c1.282,5.127,1.282,11.535,1.282,11.535l2.563,3.845
	c0,0,3.845,7.69,2.563,14.099c-1.282,6.409,7.69,39.733,11.535,43.578c3.845,3.845,7.69,10.254,6.409,15.38
	c-1.282,5.127-5.127,11.535-5.127,11.535s-11.535,21.789-7.69,42.296c3.845,20.507,34.606,117.917,37.169,125.607
	c2.563,7.69,1.282,24.352,1.282,24.352l5.127,25.634l2.563,15.38c0,0-6.409,5.127-6.409,14.099c0,8.972,5.127,30.761,7.69,33.324
	C977.111,1122.711,976.47,1127.197,976.47,1127.197z"/>
</svg>