<?xml version="1.0" encoding="utf-8"?>
<!-- Generator: Adobe Illustrator 27.5.0, SVG Export Plug-In . SVG Version: 6.00 Build 0)  -->
<svg version="1.1" id="Layer_1" xmlns="http://www.w3.org/2000/svg" xmlns:xlink="http://www.w3.org/1999/xlink" x="0px" y="0px"
	 viewBox="0 0 2000 2000" style="enable-background:new 0 0 2000 2000;" xml:space="preserve">
	 <path style="fill:#191919;" d="M1554.394,721.145c-5.685,3.553-15.635,7.107-22.741,5.685s-8.528-4.264-19.898-2.843
	c-11.371,1.421-18.477,0-27.005,2.843c-8.528,2.843-7.107,7.817-17.056,2.843s-14.924-5.685-17.766-8.528
	c-2.843-2.843-13.503-8.528-13.503-8.528s-30.558-31.269-38.375-35.533c-7.817-4.264-19.188-12.081-24.162,0s-4.264,22.741,0,34.822
	s7.817,27.716,7.107,36.954c-0.711,9.239,0,14.924,1.421,20.609c1.421,5.685,0,9.239,4.264,12.792
	c4.264,3.553,5.685,7.107,4.264,11.37c-1.421,4.264-18.477,24.873-16.345,32.69s4.264,35.533,12.081,46.904
	c7.817,11.37,11.371,12.792,12.792,25.584s0,36.954-4.975,51.167s-7.817,24.873-6.396,36.954c1.421,12.081,4.975,5.685,2.843,19.898
	c-2.132,14.213,7.107,8.528-3.553,22.741s-23.452,26.294-17.056,47.614c6.396,21.32,12.792,33.401,15.634,46.903
	c2.843,13.503,10.66,11.371,2.132,20.609c-8.528,9.239-19.899,2.132-24.162,12.081s-9.949,29.137-9.949,36.954
	s-0.711,14.213,4.975,14.924c5.685,0.711,10.66,0,10.66,0s3.553,1.421,8.528,2.843c4.975,1.421,13.503,0,13.503,0l2.843,0.711
	l16.345-4.975l9.949-5.685c0,0,2.843,2.843,8.528-2.132s11.37-13.503,11.37-13.503l4.264-7.817c0,0,11.015-4.619,15.279-14.569
	c4.264-9.949,6.396-22.03,6.396-22.03s2.132-7.817,7.107-7.107s14.213,4.264,10.66,8.528c-3.553,4.264-9.949,9.239-9.949,9.239
	s-10.66,6.396-11.371,19.188c-0.711,12.792-7.107,24.873,0.711,28.426c7.817,3.553,19.898,9.949,19.898,9.949l7.817-1.421
	c0,0-4.975,6.396,7.107,4.264s22.03-4.264,22.03-4.264s0,0.711,10.66-2.132s17.766-1.421,23.452-9.239
	c5.685-7.817-3.553-9.949,20.609-22.741c24.162-12.792,83.147-30.558,105.888-32.69s20.609-0.711,40.508-14.924
	s24.873-20.609,34.822-31.98s9.949-11.37,12.792-11.37c2.843,0,10.66,0.711,10.66,0.711s18.477-0.711,19.898-12.081
	c1.421-11.37,6.396-1.421,0-19.898c-6.396-18.477-9.239-9.949-7.107-22.03s22.03-56.853,14.213-90.964
	c-7.817-34.112-21.32-60.406-24.873-71.777c-3.553-11.37-12.792-40.508-34.112-46.903c-21.32-6.396-35.533-2.843-45.482,0
	s-9.949,4.264-25.584-2.843c-15.635-7.107-32.69-8.528-34.822-8.528c-2.132,0-14.924,1.421-14.924,1.421
	s-10.66-11.371-11.371-17.056c-0.711-5.685,1.421-11.371,1.421-11.371s9.239-14.213,7.817-23.452
	c-1.421-9.239,1.421-26.294,4.264-31.269s3.553-34.112,2.843-43.35c-0.711-9.239-4.975-15.634-12.792-13.503
	c-7.817,2.132-27.716,13.503-33.401,19.898S1554.394,721.145,1554.394,721.145z"/>
</svg>