<?xml version="1.0" encoding="utf-8"?>
<!-- Generator: Adobe Illustrator 27.5.0, SVG Export Plug-In . SVG Version: 6.00 Build 0)  -->
<svg version="1.1" id="Layer_1" xmlns="http://www.w3.org/2000/svg" xmlns:xlink="http://www.w3.org/1999/xlink" x="0px" y="0px"
	 viewBox="0 0 2000 2000" style="enable-background:new 0 0 2000 2000;" xml:space="preserve">
	 <path style="fill:#191919;" d="M738.921,799.025c0,0,25.917,22.868,30.491,30.491c4.574,7.623,7.623,19.819,7.623,25.917
	s10.672,15.245,10.672,15.245s7.623,1.525,4.574,10.672c-3.049,9.147-3.049,9.147-3.049,9.147s0,1.525-1.525,9.147
	s-4.574,10.672-4.574,10.672l-3.049,6.098c0,0-25.917,9.147-36.589,10.672s-16.77,13.721-16.77,24.393
	c0,10.672,9.909,57.17-12.959,78.514c-22.868,21.344-41.163,25.917-54.883,45.736s-22.868,39.638-19.819,54.883
	c3.049,15.245,7.623,35.064,9.147,38.113s12.196,3.049,12.196,3.049s18.294,0,21.344,6.098s0,18.294,0,18.294h-12.196l-1.525,4.574
	h-6.098c0,0,9.147,18.294-1.525,19.819s-13.721,0-13.721,0h-7.623h-22.868c0,0-12.196,1.525-18.294-13.721
	s-15.245-35.064-24.393-47.261c-9.147-12.196-12.196-19.819-12.196-19.819l-24.393,21.344c0,0-3.049,6.098,3.049,6.098
	s18.294,0,18.294,7.623s4.574,13.721-4.574,16.77s-18.294,3.049-18.294,3.049h-16.77c0,0,12.196,6.098,9.147,12.196
	s-13.721,18.294-19.819,13.721c-6.098-4.574-9.147,1.525-9.147,1.525l-6.098-3.049h-6.098c0,0,1.525-4.574-10.672-4.574
	c-12.196,0-15.245-3.049-41.163,0s-41.163,0-41.163,0s-50.31,12.196-74.702-1.525c0,0-13.721,0-19.819,3.049
	s-65.555,3.049-117.389,0s-49.147-2.271-64.392-8.369s-48.785-38.113-47.261-70.129c1.525-32.015,24.393-65.555,25.917-48.785
	s-6.098,51.834,12.196,64.031s19.819,22.868,64.031,25.917s18.656,0.746,18.656,0.746s70.129,0,85.374-7.623
	c15.245-7.623,21.344-24.393,19.819-57.932c-1.525-33.54,6.098-65.555,6.098-65.555s22.868-67.08,74.702-102.144
	c51.834-35.064,79.276-36.589,106.718-35.064c27.442,1.525,33.54-4.574,33.54-4.574l28.966,1.525c0,0,10.672,7.623,21.344,0
	c10.672-7.623,38.113-24.393,51.834-59.457c13.721-35.064,48.785-50.31,48.785-50.31s15.245-22.868,19.819-24.393
	s10.672,0,12.196,7.623c1.525,7.623,1.525,12.196,1.525,12.196l12.196-6.098c0,0,12.196-13.721,19.819-21.344
	s21.344-21.344,21.344-18.294s-3.049,12.196-7.623,21.344S735.11,795.214,738.921,799.025z"/>
</svg>