<?xml version="1.0" encoding="utf-8"?>
<!-- Generator: Adobe Illustrator 27.5.0, SVG Export Plug-In . SVG Version: 6.00 Build 0)  -->
<svg version="1.1" id="Layer_1" xmlns="http://www.w3.org/2000/svg" xmlns:xlink="http://www.w3.org/1999/xlink" x="0px" y="0px"
	 viewBox="0 0 2000 2000" style="enable-background:new 0 0 2000 2000;" xml:space="preserve">

<path style="fill:#191919;" d="M371.416,256.205c0,0-13.479-5.135-17.33-8.344c-3.851-3.209-3.209-5.777-3.209-5.777l3.209-7.061
	l0.642-6.419l3.851-9.628l4.493-8.344c0,0,10.912-16.689,14.121-22.465s6.419-17.972,6.419-17.972v-3.209
	c0,0-11.554-0.642-19.256,4.493c-7.702,5.135-18.614,7.702-18.614,7.702s-7.702,1.926-12.837,0.642
	c-5.135-1.284-19.256-7.702-19.256-7.702s-22.465-10.912-25.675-11.554c-3.209-0.642-7.702-1.926-7.702-1.926
	s-3.851-17.972-6.419-22.465c-2.567-4.493-8.986-24.391-14.121-23.107c-5.135,1.284-9.628,8.344-10.912,17.972
	s-4.493,24.391-5.777,28.242s-5.777,11.554-6.419,14.763c-0.642,3.209-3.851,7.702-3.851,7.702l-11.554,11.554v1.926v2.567v3.851
	v3.209l-1.926,2.567l2.567,3.209l-2.567,1.926l3.851,1.926l-1.926,1.284l1.284,1.284l-3.209,3.209l3.851,10.27
	c0,0,0,7.061,1.926,11.554c1.926,4.493,4.493,24.391,6.419,33.377c1.926,8.986,0.642,39.154-2.567,52.633
	c-3.209,13.479,0.642,26.958,0.642,26.958s1.926,23.107,12.195,38.512c10.27,15.405,15.405,34.661,8.344,42.363
	s-37.87,33.377-45.573,42.363c-7.702,8.986-31.451,32.735-31.451,32.735s-15.405,16.689-19.256,22.465s-5.135,5.777-3.209,7.702
	s-4.493,8.344-3.209,12.195s2.567,5.777,7.061,6.419c4.493,0.642,7.702,1.926,7.702,1.926s10.27-1.284,14.763-4.493
	c4.493-3.209,11.554-11.554,11.554-11.554l4.493-7.061c0,0,2.567-3.209,4.493-4.493s7.061-12.195,7.061-12.195s0,2.567,3.851,1.284
	c3.851-1.284,7.061-11.554,15.405-14.763c8.344-3.209,39.154-17.33,39.154-17.33s37.87-16.047,43.647-19.898
	s16.047-15.405,16.047-15.405s3.851-1.926,7.061,2.567c3.209,4.493,8.344,16.689,8.344,16.689s3.851,17.33,5.777,27.6
	s10.912,39.154,4.493,53.917c-6.419,14.763-5.777,24.391-12.837,23.749c-7.061-0.642-15.405-2.567-23.107,7.061
	s-8.344,16.047-3.851,16.689c4.493,0.642,3.851,0.642,7.061,1.926c3.209,1.284,10.27,0,10.27,0s3.851,0,13.479,0.642
	c9.628,0.642,15.405-2.567,15.405-2.567l9.628-10.27c0,0,4.493-8.344,7.702-12.195c3.209-3.851,5.777-7.061,8.344-16.689
	c2.567-9.628,3.209-26.317,3.209-26.317l19.256-89.219c0,0,2.567-13.479,12.195-15.405s56.484-7.061,68.038,1.284
	s16.047,4.493,24.391,18.614c8.344,14.121,7.061,18.614,11.554,30.168c4.493,11.554,1.284,17.33,7.061,21.823
	c5.777,4.493,7.702,7.061,9.628,12.195c1.926,5.135,9.628,21.823-9.628,30.81c-19.256,8.986-34.661,21.182-42.363,19.256
	s-26.317,1.284-25.675,9.628s3.209,16.689,11.554,14.763c7.061,1.284,21.823,5.135,33.377,1.284
	c11.554-3.851,32.735-12.837,55.842-25.675s34.019-21.182,34.661-25.675c0.642-4.493-3.209-5.777-2.567-10.27
	c0.642-4.493,3.851-24.391,6.419-35.945s0-25.675,0-30.81s34.019,19.898,51.991,26.958c17.972,7.061,86.652,24.391,94.996,29.526
	c8.344,5.135,8.986,6.419,11.554,17.33c2.568,10.912,7.061,41.079,2.568,39.796c-4.493-1.284-21.182,1.284-21.823,10.912
	c-0.642,9.628,1.284,20.54,7.702,17.972c6.419-2.568,9.628,0.642,9.628,0.642h19.256c0,0,7.06,1.926,11.554-9.628
	c4.493-11.554,8.986-25.033,7.702-37.228c-1.284-12.195,0-58.41,0-58.41s3.209-19.256-6.419-22.465
	c-9.628-3.209-41.721-30.168-56.484-49.424c-14.763-19.256-15.405-23.107-14.763-41.079s-3.851-35.945-8.344-44.931
	c-4.493-8.986-7.702-24.391-0.642-32.735c7.061-8.344,41.721-27.6,53.275-49.424s7.061-16.047,7.061-16.047l3.209-14.121
	l3.209-8.986l0.642-6.419l-3.209,4.493l3.209-12.195l1.926-8.344l0.642-6.419c0,0,5.777-30.81,3.851-39.796
	s-5.777-16.047-5.777-16.047l1.926,9.628c0,0-2.567-7.061-5.135-17.33c-2.567-10.27-12.195-23.749-12.195-23.749L745.283,92.12
	l-2.869-3.443c0,0-8.986-9.628-14.763-12.837c-5.777-3.209-14.121-7.061-14.121-7.061l1.284,2.567c0,0-5.135-4.493-16.047-5.777
	c-7.315-0.861-14.629-0.567-18.657-0.281c-1.981,0.141-3.166,0.281-3.166,0.281s-14.121,0.642-19.898,2.567
	c-5.777,1.926-10.27,5.135-10.27,5.135s-1.926,1.926-7.061,5.135c-5.135,3.209-11.554,6.419-11.554,6.419l-8.665,8.665l-1.605,1.605
	v6.419c0,0-3.209-0.642,0.642,3.209c3.851,3.851,5.135,9.628,10.912,7.061s4.493-1.926,14.121-5.135
	c9.628-3.209,30.168-13.479,52.633,0s41.721,28.884,40.438,66.754c-1.284,37.87-0.642,78.95-56.484,114.252
	c-16.689,5.777-39.796-0.642-50.066-6.419c-10.27-5.777-96.922-40.438-139.927-46.214c-43.005-5.777-59.694,0.642-71.247,3.851
	C407.36,242.084,389.388,255.563,371.416,256.205z"/>
</svg>
