<svg xmlns="http://www.w3.org/2000/svg" width="5000" height="5000" viewBox="0 0 5000 5000">
  <metadata><?xpacket begin="﻿" id="W5M0MpCehiHzreSzNTczkc9d"?>
<x:xmpmeta xmlns:x="adobe:ns:meta/" x:xmptk="Adobe XMP Core 5.6-c138 79.159824, 2016/09/14-01:09:01        ">
   <rdf:RDF xmlns:rdf="http://www.w3.org/1999/02/22-rdf-syntax-ns#">
      <rdf:Description rdf:about=""/>
   </rdf:RDF>
</x:xmpmeta>                                                                                   
                           
<?xpacket end="w"?></metadata>
<defs>
    <style>
      .cls-1 {
        fill-rule: evenodd;
      }
    </style>
  </defs>
  <path id="Form_1" data-name="Form 1" class="cls-1" d="M4409.97,247.015L1695.37,734.16V3836.79c-72.43-68.39-193.11-88.49-333.93-88.49-160.92,0-354.03,80.47-506.922,205.17-152.868,120.67-265.531,285.61-265.531,450.54,0,104.6,44.269,193.12,120.682,253.46,72.424,60.33,177.028,96.54,289.69,96.54,177.031,0,378.191-72.41,531.051-193.09,156.9-120.7,265.53-285.64,265.53-466.64V1096.73L4310.41,645.5V3367.46c-72.43-68.39-193.14-88.49-333.93-88.49-160.95,0-354.05,80.47-506.92,205.17C3316.66,3604.81,3204,3769.75,3204,3934.68c0,104.6,44.26,193.12,120.71,253.46,72.43,60.33,177.04,96.54,289.66,96.54,177.03,0,378.19-72.41,531.09-193.09,156.89-120.7,265.53-285.64,265.53-466.64Z"/>
</svg>
