<?xml version="1.0" encoding="utf-8"?>

<!-- Uploaded to: SVG Repo, www.svgrepo.com, Generator: SVG Repo Mixer Tools -->
<svg version="1.1" id="Icons" xmlns="http://www.w3.org/2000/svg" xmlns:xlink="http://www.w3.org/1999/xlink" 
	 viewBox="0 0 32 32" xml:space="preserve">
<style type="text/css">
	.st0{fill:none;stroke:#000000;stroke-width:2;stroke-linejoin:round;stroke-miterlimit:10;}
	.st1{fill:none;stroke:#000000;stroke-width:2;stroke-linecap:round;stroke-linejoin:round;stroke-miterlimit:10;}
</style>
<path class="st1" d="M15,27c-1,0.9,0,2,1,2c1,0,4-1,2-8c-2-7-2-7-3.5-12.8C13.5,4.1,17,3,17,3s2,1,2,4c0,4-2.7,6.1-5,7.3
	c-3,1.7-4,3.3-4,4.7c0,1.9,2,4.9,6,4.7c3-0.1,6-1.8,6-4.8c0-1-1-3-4-2.8c-1.5,0.1-3.7,1.9-4,3.8"/>
</svg>